<svg width="60" height="60" xmlns="http://www.w3.org/2000/svg">
  <line x1="5" y1="18" x2="10" y2="18" style="fill:none;stroke:#222831;stroke-width:2" />
  <line x1="5" y1="22" x2="10" y2="22" style="fill:none;stroke:#222831;stroke-width:2" />
  <line x1="5" y1="26" x2="10" y2="26" style="fill:none;stroke:#222831;stroke-width:2" />
  <line x1="5" y1="30" x2="10" y2="30" style="fill:none;stroke:#222831;stroke-width:2" />
  <line x1="5" y1="34" x2="10" y2="34" style="fill:none;stroke:#222831;stroke-width:2" />
  <line x1="5" y1="38" x2="10" y2="38" style="fill:none;stroke:#222831;stroke-width:2" />
  <line x1="5" y1="42" x2="10" y2="42" style="fill:none;stroke:#222831;stroke-width:2" />

  <line x1="50" y1="18" x2="55" y2="18" style="fill:none;stroke:#222831;stroke-width:2" />
  <line x1="50" y1="22" x2="55" y2="22" style="fill:none;stroke:#222831;stroke-width:2" />
  <line x1="50" y1="26" x2="55" y2="26" style="fill:none;stroke:#222831;stroke-width:2" />
  <line x1="50" y1="30" x2="55" y2="30" style="fill:none;stroke:#222831;stroke-width:2" />
  <line x1="50" y1="34" x2="55" y2="34" style="fill:none;stroke:#222831;stroke-width:2" />
  <line x1="50" y1="38" x2="55" y2="38" style="fill:none;stroke:#222831;stroke-width:2" />
  <line x1="50" y1="42" x2="55" y2="42" style="fill:none;stroke:#222831;stroke-width:2" />

  <line x1="18" y1="50" x2="18" y2="55" style="fill:none;stroke:#222831;stroke-width:2" />
  <line x1="22" y1="50" x2="22" y2="55" style="fill:none;stroke:#222831;stroke-width:2" />
  <line x1="26" y1="50" x2="26" y2="55" style="fill:none;stroke:#222831;stroke-width:2" />
  <line x1="30" y1="50" x2="30" y2="55" style="fill:none;stroke:#222831;stroke-width:2" />
  <line x1="34" y1="50" x2="34" y2="55" style="fill:none;stroke:#222831;stroke-width:2" />
  <line x1="38" y1="50" x2="38" y2="55" style="fill:none;stroke:#222831;stroke-width:2" />
  <line x1="42" y1="50" x2="42" y2="55" style="fill:none;stroke:#222831;stroke-width:2" />

  <line x1="18" y1="5" x2="18" y2="10" style="fill:none;stroke:#222831;stroke-width:2" />
  <line x1="22" y1="5" x2="22" y2="10" style="fill:none;stroke:#222831;stroke-width:2" />
  <line x1="26" y1="5" x2="26" y2="10" style="fill:none;stroke:#222831;stroke-width:2" />
  <line x1="30" y1="5" x2="30" y2="10" style="fill:none;stroke:#222831;stroke-width:2" />
  <line x1="34" y1="5" x2="34" y2="10" style="fill:none;stroke:#222831;stroke-width:2" />
  <line x1="38" y1="5" x2="38" y2="10" style="fill:none;stroke:#222831;stroke-width:2" />
  <line x1="42" y1="5" x2="42" y2="10" style="fill:none;stroke:#222831;stroke-width:2" />
  
  <polygon points="14,10 46,10 50,14 50,46 46,50 14,50 10,46 10,14"
  style="fill:#FFD369;stroke:#222831;stroke-width:3" />
  
  <polyline points="21,17 21,27 29,42 31,42 39,27 39,17"
  style="fill:none;stroke:#222831;stroke-width:5" />

  <circle r="2" cx="16" cy="44" fill="#222831" />
</svg>